<svg xmlns="http://www.w3.org/2000/svg" xmlns:xlink="http://www.w3.org/1999/xlink" viewBox="0 0 933.88 293.11" width="933.88" height="293.11"><defs><style>.cls-1{fill:#fff;}.cls-2{mask:url(#mask);}</style><mask id="mask" x="912.47" y="186.81" width="21.42" height="21.64" maskUnits="userSpaceOnUse"><g id="mask-2"><polygon id="path-1" class="cls-1" points="933.88 208.45 933.88 186.81 912.47 186.81 912.47 208.45 933.88 208.45"/></g></mask></defs><title>Asset 2</title><g id="Layer_2" data-name="Layer 2"><g id="Layer_1-2" data-name="Layer 1"><g id="Page-1"><g id="Qualys-Horizontal"><g id="Logo-Horizontal"><path id="Fill-4" class="cls-1" d="M394.18,196.54a50.21,50.21,0,1,1,50.21-50.21,50.26,50.26,0,0,1-50.21,50.21m0-120.71a70.59,70.59,0,0,0-70.51,70.51c0,23.53,9.89,44.5,28.6,60.64,17.52,15.11,42.65,25.53,71.66,30.36,4.15-2.28,12-10,14.49-15.24-21.37-3.69-31.18-7.35-31.18-7.35a40.68,40.68,0,0,0,8.23-1.65c28.55-8,49.49-36.21,49.21-66.77-.36-38.87-31.63-70.51-70.51-70.51"/><g id="Group-8"><g class="cls-2"><path id="Fill-6" class="cls-1" d="M921.57,193.17v3.48h2.11a2.06,2.06,0,0,0,1.44-.48,1.62,1.62,0,0,0,.53-1.26q0-1.74-2-1.74Zm6.18,1.65a3.56,3.56,0,0,1-2.65,3.57l3.07,4.8h-2.38L923,198.52h-1.42v4.67h-2v-11.9H924a3.92,3.92,0,0,1,2.75,1,3.3,3.3,0,0,1,1.05,2.56ZM917,203.92a9,9,0,0,0,12.26,0,9.54,9.54,0,0,0,0-12.61,9,9,0,0,0-12.26,0,9.54,9.54,0,0,0,0,12.61Zm-1.56-14.09a11.29,11.29,0,0,1,15.38,0,11.59,11.59,0,0,1,0,15.6,11.3,11.3,0,0,1-15.38,0,11.59,11.59,0,0,1,0-15.6Z"/></g></g><path id="Fill-9" class="cls-1" d="M784.09,178.72l-23.81-63.19H739.05l34.75,88.2s-15.37,36.54-15.36,36.54c10.11,0,21.17-.71,25.5-11.37,10.15-25,45.5-113.37,45.5-113.37H808.22Z"/><path id="Fill-11" class="cls-1" d="M704.49,210.25s19.69-.37,19.69-13.73v-120H704.49Z"/><path id="Fill-13" class="cls-1" d="M634.14,191.77c-11.91,0-29.72-7.95-30-29.84v-.16c0-17.29,12.75-30.32,29.67-30.32,12.63,0,22.9,6.6,27.49,17.71a27.28,27.28,0,0,1,2.51,12.73,32.64,32.64,0,0,1-3,12.87c-4.64,10.65-14.6,17-26.65,17ZM663.65,128c-5.48-7.65-16.2-15.07-32-15.07-26.92,0-47.22,20.94-47.22,48.7,0,13,4.44,25,12.49,34,8.71,9.65,20.72,14.75,34.73,14.75,13.57,0,25.18-5.53,32-15v15s19.7-.31,19.7-13.72v-81h-19.7Z"/><path id="Fill-15" class="cls-1" d="M548.57,166.87c0,15.9-8.26,24.74-23.24,24.89-15.2,0-22.59-8.63-22.59-26.37V115.54H483v53.81c0,7.77,1.31,18.84,7.55,27.51,6.38,8.85,16.45,13.38,29.95,13.46h.55c16.14,0,24.45-7.32,28.47-13v12.93s18.71-.32,18.71-13.06V115.54h-19.7Z"/><path id="Fill-17" class="cls-1" d="M876.66,153c-10.23-4.42-17.68-8.25-17.54-14.19.09-3.93,5.26-7.69,10.64-7.5,5.76.2,10,4.17,12.41,7.34,0,0,10.76-9.2,12.06-10.18a30.16,30.16,0,0,0-25.66-14.66,27.32,27.32,0,0,0-28.06,26.48c-.28,12.94,7.29,18.28,17.23,23.91l16.36,9.2c3.77,2.64,5.55,4.61,5.46,8.67-.14,6.36-5.46,10.49-12.35,10.89-5.07.3-9.23-2.63-13.18-6.76-7.68-8-19.46-4.17-23.07-3,7.5,17.24,21.68,27.28,35.85,27.59,17.84.39,32.12-12.78,32.5-30,.18-8.28-3.45-18.57-22.64-27.81"/><path class="cls-1" d="M243.53,42.89S203.23,0,123.07,0,2.65,42.89,2.65,42.89-2,74.63,1,138.55c4.44,96.56,122.1,154.56,122.11,154.56s117.67-58,122.11-154.56C248.14,74.63,243.53,42.89,243.53,42.89ZM179.21,194c-14.4-1.32-29.43-5.4-36.24-9.29,17.56-11.21,40.35-33,40.35-59.52A60.28,60.28,0,0,0,123.09,65c-33.18,0-60.17,27.78-60.17,61.92,0,28.48,15.09,50.84,44.84,66.44,19.47,10.21,48.51,17.7,79.2,21.65-5.11,7.6-18.72,20.59-26.68,25-36.74-6-69-18.75-91.08-37.82-23.6-20.39-36.07-47-36.07-77a90,90,0,0,1,179.91,0A86.9,86.9,0,0,1,179.21,194Z"/></g></g></g></g></g></svg>